<svg width="294" height="222" viewBox="0 0 294 222" fill="none" xmlns="http://www.w3.org/2000/svg">
<path d="M165 25.4028C186 39.4028 230 90.4028 234.5 96.9028C239 103.403 225.5 106.903 218 101.403C210.5 95.9028 178 62.4028 178 62.4028L151 44.4028C151 44.4028 137 38.9028 134 46.4028C131 53.9028 134.5 62.4028 137 62.4028C139.5 62.4028 154.5 73.4028 154.5 73.4028C154.5 73.4028 162 80.9028 160.5 82.9028C159 84.9028 140.5 80.9028 140.5 80.9028L112 62.4028L83 39.4028L66.5 30.4028L48 25.4028C48 25.4028 29.5 21.422 20.5 23.9028C11.5 26.3836 0 33.9028 0 33.9028C0 33.9028 27.5 13.0628 40.5 8.56279C53.5 4.06279 76.5 -0.597218 89 0.0627853L89.1227 0.0692624C101.585 0.727257 114.534 1.41096 125 3.90279C135.5 6.40279 165 25.4028 165 25.4028Z" fill="#F9785C"/>
<path d="M179.5 69.9028C178 67.4028 172.5 61.9028 171 63.4028C169.5 64.9028 172 92.4028 173 96.9028C174 101.403 185.5 108.403 186.5 104.903C187.5 101.403 181 72.4028 179.5 69.9028Z" fill="#F9785C"/>
<path d="M205.5 96.9028C203.5 91.4028 186.5 73.4028 185 74.9028C183.5 76.4028 195 112.403 197 114.903C199 117.403 210 123.403 211 119.903C212 116.403 207.5 102.403 205.5 96.9028Z" fill="#F9785C"/>
<path d="M128.508 195.761C107.492 181.785 63.4332 130.836 58.9256 124.341C54.4181 117.846 67.914 114.331 75.4204 119.822C82.9268 125.313 115.466 158.776 115.466 158.776L142.486 176.744C142.486 176.744 156.493 182.228 159.484 174.725C162.475 167.221 158.966 158.725 156.466 158.728C153.966 158.731 138.953 147.748 138.953 147.748C138.953 147.748 131.444 140.257 132.942 138.255C134.439 136.254 152.944 140.232 152.944 140.232L181.466 158.699L210.492 181.665L227.003 190.646L245.508 195.625C245.508 195.625 264.013 199.584 273.01 197.093C282.007 194.602 293.499 187.069 293.499 187.069C293.499 187.069 266.023 207.941 253.028 212.456C240.033 216.971 217.039 221.658 204.538 221.012L204.415 221.006C191.952 220.363 179.002 219.694 168.533 217.214C158.031 214.726 128.508 195.761 128.508 195.761Z" fill="#58A9D7"/>
<path d="M113.957 151.277C115.46 153.776 120.966 159.269 122.464 157.768C123.963 156.266 121.431 128.769 120.426 124.27C119.42 119.771 107.912 112.784 106.916 116.286C105.92 119.787 112.454 148.779 113.957 151.277Z" fill="#58A9D7"/>
<path d="M87 124.341C89.0064 129.839 106.953 147.786 108.451 146.284C109.949 144.782 98.4076 108.795 96.4047 106.298C94.4018 103.8 83.3949 97.8128 82.3989 101.314C81.403 104.815 84.9936 118.844 87 124.341Z" fill="#58A9D7"/>
</svg>
